<?xml version="1.0" standalone="no"?>
<!DOCTYPE svg PUBLIC "-//W3C//DTD SVG 20010904//EN"
 "http://www.w3.org/TR/2001/REC-SVG-20010904/DTD/svg10.dtd">
<svg version="1.0" xmlns="http://www.w3.org/2000/svg"
 width="223.000000pt" height="224.000000pt" viewBox="0 0 223.000000 224.000000"
 preserveAspectRatio="xMidYMid meet">

<g transform="translate(0.000000,224.000000) scale(0.100000,-0.100000)"
fill="#000000" stroke="none">
<path d="M0 1120 l0 -1120 1115 0 1115 0 0 1120 0 1120 -1115 0 -1115 0 0
-1120z m1415 840 c33 -7 67 -18 75 -25 8 -7 30 -15 49 -19 26 -5 138 -67 142
-79 0 -1 3 -22 5 -46 3 -25 16 -63 30 -86 40 -69 30 -220 -16 -245 -14 -7 -19
-28 -24 -98 -4 -49 -14 -102 -22 -118 -8 -16 -17 -58 -20 -94 -3 -36 -12 -81
-19 -100 -7 -19 -16 -65 -19 -101 -3 -36 -12 -84 -21 -105 -8 -21 -19 -68 -24
-104 -6 -36 -14 -85 -20 -110 -6 -25 -10 -64 -11 -87 0 -23 -4 -45 -10 -48 -5
-3 -10 -23 -10 -44 0 -45 -52 -119 -90 -128 -14 -3 -34 -12 -46 -20 -27 -17
-400 -27 -459 -12 -59 15 -117 44 -142 70 -41 45 -54 97 -93 378 -7 47 -18 94
-25 105 -7 12 -16 57 -20 101 -4 44 -12 88 -17 98 -5 9 -13 54 -18 100 -4 45
-15 116 -24 157 -9 41 -16 89 -16 105 0 18 -8 38 -20 48 -11 9 -20 23 -20 31
0 7 -7 19 -16 27 -13 11 -15 26 -9 93 4 45 10 86 14 91 4 6 16 37 26 70 19 58
67 125 91 125 6 0 25 7 40 15 16 8 38 15 49 15 11 0 29 7 39 15 11 8 36 15 55
15 20 1 47 7 61 15 20 12 69 14 260 11 140 -1 259 -8 295 -16z"/>
<path d="M875 1910 c-11 -5 -38 -9 -60 -9 -22 -1 -49 -7 -60 -15 -11 -7 -47
-22 -80 -34 -65 -22 -79 -47 -39 -67 12 -6 28 -16 35 -22 8 -6 28 -13 44 -16
60 -11 120 -28 129 -38 6 -5 118 -9 265 -9 209 1 260 3 275 15 11 8 32 15 46
15 15 0 30 3 34 7 9 10 78 33 98 33 25 0 50 40 36 57 -6 7 -15 13 -20 13 -5 0
-33 11 -61 23 -93 42 -150 50 -392 53 -126 2 -239 -1 -250 -6z"/>
<path d="M577 1753 c-18 -33 -17 -67 4 -89 12 -13 28 -24 35 -24 6 0 17 -7 24
-15 7 -8 20 -15 30 -15 10 0 31 -7 46 -15 16 -8 47 -15 69 -15 23 0 46 -5 53
-12 17 -17 536 -18 553 0 7 6 26 12 42 12 16 0 43 6 60 14 18 7 48 19 67 26
54 20 90 58 90 96 0 43 -22 49 -68 20 -20 -14 -78 -38 -129 -55 l-92 -31 -233
0 c-203 0 -243 3 -308 21 -41 11 -87 23 -102 26 -15 3 -33 11 -39 19 -6 8 -19
14 -28 14 -9 0 -25 7 -35 15 -22 17 -33 19 -39 8z"/>
<path d="M1620 1591 c-51 -32 -111 -52 -220 -76 -61 -13 -121 -15 -315 -12
-227 4 -326 14 -349 37 -6 6 -18 10 -28 10 -11 0 -48 14 -83 30 -35 17 -68 30
-74 30 -5 0 -12 -14 -16 -31 -5 -24 -2 -36 16 -55 12 -13 28 -24 34 -24 7 0
23 -9 37 -19 26 -21 151 -56 258 -73 79 -12 483 -5 525 9 17 6 57 17 90 24 68
14 81 20 148 62 45 29 48 33 45 71 -2 22 -7 41 -13 43 -5 1 -30 -10 -55 -26z"/>
<path d="M604 1398 c4 -13 10 -41 13 -63 3 -22 10 -45 15 -51 4 -6 11 -49 14
-95 3 -46 12 -100 19 -119 7 -19 16 -66 20 -105 4 -38 13 -82 21 -97 8 -15 14
-56 14 -91 0 -36 7 -84 15 -107 8 -23 15 -57 15 -74 0 -18 7 -41 15 -52 8 -10
15 -38 15 -61 0 -59 14 -87 53 -112 33 -20 47 -21 268 -20 l234 0 50 28 c49
27 50 30 62 92 7 35 19 116 27 179 9 63 20 133 25 155 9 38 19 81 55 265 9 41
18 100 22 130 3 30 12 62 19 70 17 21 29 136 15 145 -10 6 -23 3 -95 -25 -90
-34 -214 -48 -430 -48 -171 0 -303 16 -380 47 -30 12 -90 31 -99 31 -5 0 -5
-10 -2 -22z m188 -115 c13 -11 18 -30 18 -66 0 -28 4 -64 9 -81 6 -17 15 -71
21 -121 6 -49 18 -121 25 -160 21 -109 42 -313 36 -362 0 -7 -7 -13 -15 -13
-23 0 -30 19 -38 95 -15 146 -34 271 -46 292 -7 12 -12 44 -12 71 0 27 -6 65
-14 83 -7 19 -16 86 -20 150 -8 132 -3 147 36 112z"/>
</g>
</svg>
